<svg xmlns="http://www.w3.org/2000/svg" width="48" height="48" viewBox="0 0 254 254" fill="#42a5f5"><path d="M234.913 50.844c-9.282-18.392-28.715-32.382-50-34-11.187-.847-22.794 1.5-34 1-11.026-.489-21.974-3.821-33-4-12.363-.216-24.514 3.744-35 10a54.558 54.558 0 0 0-11 8 25.026 25.026 0 0 0-9 6c-10.088 11-1.367 30.626-11 42-4.371 5.146-11 6.688-17 10-12.306 6.783-20.422 19.425-21 33a40.572 40.572 0 0 0 18 35c6.845 4.516 15.107 7.56 22 12 16.677 10.725 24.143 31.064 39 44 14.25 12.418 33.218 16.889 52 21 14.676 3.217 29.973 6.1 45 7 8.154.489 16.624.349 24-3 11.074-5.033 17.445-16.363 19-28s-1.61-24.049-6-35c-3.043-7.62-6.469-14.862-7-23-1-15.316 8.932-28.8 15-43 8.077-18.91 9.291-40.599 0-59zm-59 60c-1.062 7.846.053 4.813-3 12a56.35 56.35 0 0 1-5 9c-.673 1.035-1.431 1.909-2 3a52.2 52.2 0 0 1 0 21c-2.759 11.995-11.874 21.528-22 28-10.069 6.444-24.651 8.1-36 5-9.4-2.568-21.207-10.307-27-19-3.821-2.418-7.7-4.679-11-8-10.77-10.828-16.479-25.929-17-41-.607-17.762 10.774-35.2 26-44a70.06 70.06 0 0 1 9-4 55.104 55.104 0 0 1 7-10c8.542-9.238 21.741-13.454 34-14a34.914 34.914 0 0 1 18 4 35.34 35.34 0 0 1 15 10c7.86 7.8 13.5 19.777 14 31a47.59 47.59 0 0 1 1 8 70.77 70.77 0 0 1-1 9z"/><path d="M245.912 43.843c-12.375-22.913-35.7-39.116-62-41-15.566-1.106-30.406 1.344-46-1-15.641-2.353-29.736-3.185-45 2-12.677 4.313-23.182 12.444-34 20-11.544 8.053-14.386 19.668-15 33-.179 3.8.322 9.737-2 13-3.36 4.716-12.214 6.878-17 10a54.19 54.19 0 0 0-23 31c-7.495 27.235 7.835 52.14 32 64 11.8 5.785 20.3 12.415 28 23 7.939 10.913 14.975 21.89 26 30 22.466 16.529 53.994 20.828 81 25 27.856 4.3 59.341 4.054 73-25 6.645-14.129 6-29.15 2-44-4.663-17.307-13.939-29.112-6-47 6.721-15.132 13.857-28.2 16-45 2.143-16.782-.873-32.7-8-48-7.646-16.407-31.608-2.332-24 14 10.836 23.251.968 42.784-9 64-4.521 9.619-8.519 20.209-8 31 .623 12.957 7.394 23.812 11 36 2.813 9.507 4.513 21.122-1 30-6.844 11.035-20.635 9.163-32 8-21.8-2.222-46.894-7.075-67-16-20.125-8.925-27.614-27.925-42-43-6.8-7.116-15.174-11.781-24-16-10.006-4.781-18.659-10.337-21-22-5.173-25.716 24.607-27.24 36-43 5.352-7.406 6.528-16.112 7-25 .189-3.572-.746-9.616 1-13 1.869-3.619 8.564-6.272 12-9 9.477-7.5 20.814-12.206 33-12 13.838.216 27.03 4.534 41 4 13.328-.516 26.4-2.747 39 3 10.563 4.819 18.572 12.95 24 23 8.619 15.957 32.619 1.967 24-14z"/><path d="M158.912 107.844c-.264 2-.171 3.079-1 5-2.258 5.29-7.244 11.391-8 17-.856 6.319 1.712 12.535 0 19-1.275 4.844-4.485 8.485-8 12-14.059 14.086-35.4 12.233-48-3-4.061-4.9-9.693-7.265-14-12a43.61 43.61 0 0 1-8-14c-3.46-9.4-4.27-18.767 0-28a39.518 39.518 0 0 1 20-20c4.525-2.04 7.3-3.821 10-8a31.116 31.116 0 0 1 5-6 29.026 29.026 0 0 1 14-7c24.748-5.563 42.323 17.927 39 41-1.056 7.293 1.261 14.878 9 17 6.419 1.766 15.944-2.652 17-10 4.025-27.917-6.284-59.236-34-71-13.84-5.882-26.359-7.27-41-3-14.778 4.307-26.215 13.879-34 27l8-6c-23.5 9.834-40.806 28.722-43 55-2.167 25.932 11.794 50.224 33 64l-5-5c15.251 21.525 43.651 31.969 69 23 12.292-4.352 22.625-13.31 30-24 8.859-12.82 10.4-28.031 8-43l-1 10c5.718-10.134 9.5-18.5 11-30 .956-7.33-7.308-14-14-14-8.176 0-13.035 6.652-14 14z"/></svg>