<svg id="Fingers" xmlns="http://www.w3.org/2000/svg" width="140" height="166" viewBox="0 0 140 166"><defs><style>.cls-1{fill:#e7baad;}.cls-2{fill:#9f7c52;}.cls-3{fill:#1b201e;}.cls-4{fill:#666;}.cls-5{fill:#963;}.cls-6{fill:#e1c79d;}</style></defs><path class="cls-1" d="M121.82,86.7411a2.099,2.099,0,0,0-.2081-.7224,10.235,10.235,0,0,0-.9631-4.4179c.0623-2.9369-2.2655-5.2911-4.2066-7.2646-1.9232-1.9388-5.1929-1.2832-7.7818-1.0963a.427.427,0,0,0-.441-.413.4725.4725,0,0,0-.3071-.1323,2.4806,2.4806,0,0,0-2.5593,2.462,6.4865,6.4865,0,0,0-.2282,2.7012.5014.5014,0,0,0,.479.4753c-.0983.27-.1784.5493-.2526.8315a.4279.4279,0,0,0-.4726.122l-1.2214,1.2873c-.8394.8588-1.81,1.7611-1.8856,3.0393a32.7265,32.7265,0,0,0-2.374,4.2472c-2.3614,1.6754-3.461,4.6071-5.3555,6.7423a67.6735,67.6735,0,0,0-5.99,7.4685.4211.4211,0,0,0,.2.6545,2,2,0,0,0,.8012,2.0013c-.3042.9222.6481,1.9174,1.0948,2.7167l.0029.0045q2.0055,3.1955,3.7967,6.5169a1.9714,1.9714,0,0,0,2.6539.6959,8.9049,8.9049,0,0,0,3.0328-2.4412,7.0965,7.0965,0,0,0,1.9848,4.959,10.4291,10.4291,0,0,0,3.8177,1.9522q1.6387.5976,3.2788,1.1914c.0718.0446.1357.0816.1937.1127a2.1081,2.1081,0,0,0,3.57.2707,2.4017,2.4017,0,0,0,.4213-1.0635c.0944-.2514.19-.5037.2853-.7557a1.74,1.74,0,0,0,.78-.8028,27.6214,27.6214,0,0,0,2.8348-7.5453c2.5443-5.596,4.5486-11.8181,4.3547-18.0276A13.4518,13.4518,0,0,0,121.82,86.7411Z"/><path class="cls-1" d="M89.8559,100.5394c.5613-1.2515,1.8979-1.8984,2.7984-2.88a17.6764,17.6764,0,0,0,1.506-1.6619,6.5345,6.5345,0,0,1,1.4427-1.6119,14.1525,14.1525,0,0,0,2.4282-3.6145c.65-1.1643,1.24-2.8053,2.6049-3.3046.586-.2145.3329-1.1595-.26-.9426a4.6412,4.6412,0,0,0-2.3535,2.2238c-.64,1.1157-1.2292,2.2561-1.9026,3.3535a8.0242,8.0242,0,0,1-1.0124,1.4013,11.6857,11.6857,0,0,0-1.25,1.27A17.1565,17.1565,0,0,1,91.3557,97.54a7.6442,7.6442,0,0,0-2.4424,2.74C88.69,100.8683,89.6348,101.1229,89.8559,100.5394Z"/><path class="cls-1" d="M105.2978,92.9114a14.22,14.22,0,0,1-2.59,4.9046c-3.2445,4.2312-4.1568,9.3268-3.5269,14.5692-.0494.0072-.7874-.3583-1.0295.0018-.1375.2045-.2942.4333-.4666.6624a1.6407,1.6407,0,0,1,.1782.3433c-.6542.3417-1.2246,1.0873-2,1.1557-1.3252-.032-1.6794-2.1813-2.2829-3.0987-.7975-1.3809-1.6785-2.7182-2.52-4.0725a8.5125,8.5125,0,0,1-1.1262-2.0451,6.7347,6.7347,0,0,0-.8552-2.14c-.3557-.5138-1.2034-.0256-.844.4933a5.1331,5.1331,0,0,1,.7183,1.7586,5.9076,5.9076,0,0,0,.7913,1.6678c.7124,1.1706,2.5707,4.0664,3.2079,5.22.2852.54.4556,1.1352.756,1.667a2.3837,2.3837,0,0,0,2.6064,1.4541c.9734-.2781,1.6358-1.1276,2.5731-1.4868,0,.0092.0018.0183.0022.0275a.4718.4718,0,0,0,.6031.498,7.1971,7.1971,0,0,0,1.4006,3.1353c.4477.7551.6515,1.7577,1.5377,2.1382.5719.2455,1.07-.5963.4934-.8441a1.7612,1.7612,0,0,1-.8159-.9853.4877.4877,0,1,0-.4128-.8693c-.2383-.3874-.5208-.7472-.7356-1.1491a8.47,8.47,0,0,1-.6815-2.6285.5425.5425,0,0,0-.0629-.4525,22.4812,22.4812,0,0,1,.7034-9.6845c1.1045-3.6831,4.417-6.2261,5.3208-9.9806C106.3788,92.5587,105.4366,92.2971,105.2978,92.9114Z"/><path class="cls-1" d="M121.6944,82.0964a29.01,29.01,0,0,0-3.063-6.1153c-2.4788-3.43-7.35-4.2162-11.24-3.1579a1.2435,1.2435,0,0,1,.7572.8165c3.1552-.7044,6.9548-.1433,9.2331,2.3157a13.6623,13.6623,0,0,1,1.5826,2.5192,19.674,19.674,0,0,1,2.7374,8.7584c.1217,1.6971.4376,5.0311-1.9,5.3871-.62.0944-.3565,1.0364.26.9426a2.5206,2.5206,0,0,0,.7786-.2616,60.649,60.649,0,0,1-1.7667,11.019c-.5482,1.9017-1.5835,3.604-2.2476,5.4643-.6427,1.8006-1.122,3.6615-1.9133,5.4068a40.7267,40.7267,0,0,0-2.5452,5.7958.4892.4892,0,0,0,.9426.26,33.0138,33.0138,0,0,1,2.2641-5.1685c1.2656-2.6541,1.8209-5.5728,3.1079-8.2188a26.6927,26.6927,0,0,0,2.4424-8.6348q.5431-3.3888.7576-6.8182C123.5287,90.3055,122.5078,84.5291,121.6944,82.0964Z"/><path class="cls-1" d="M32.0876,122.794a13.1851,13.1851,0,0,0-1.0594-2.0553c-1.5447-1.9507-4.4946-1.3468-6.6114-.881a5.7915,5.7915,0,0,0-2.1082.82,18.5276,18.5276,0,0,0-1.6141,1.4076,10.7927,10.7927,0,0,0-2.5382,3.2663c-1.323,1.0353-.63,3.6369,1.2056,3.4772a13.9015,13.9015,0,0,0,8.5635-3.8774,2.0226,2.0226,0,0,0,3.7038-1.4156A.5212.5212,0,0,0,32.0876,122.794Z"/><path class="cls-1" d="M43.1617,142.7646A1.8742,1.8742,0,0,0,40.42,141.86l-.01-.0226c-.0831.0619-.1676.1214-.2511.1827a6.2362,6.2362,0,0,0-.6134.4438q-1.3246.9372-2.7125,1.7665a3.8406,3.8406,0,0,0-1.177.296c.0217-.3378-.0408-.9267-.039-1.0511.0452-3.1619.0575-6.2533-1.4728-9.1143a1.79,1.79,0,0,0-2.7878-.5173,2.6888,2.6888,0,0,0-1.0314.228,31.7278,31.7278,0,0,0-10.0639,6.866c-2.8326,2.9315-5.024,6.56-8.826,8.3536a1.9494,1.9494,0,0,0-.3925,3.0465,16.8545,16.8545,0,0,0,2.218,1.58c-.22.7219,2.3965,1.9456,2.8263,1.3586,2.9028,1.0672,6.0976,1.2379,8.5616-.6142a8.8757,8.8757,0,0,0,3.0975-3.65c.0964.0315.198.0534.2975.0793a.4715.4715,0,0,0,.9137.1658c2.7317.2785,6.2131-.9966,8.6373-2.148.9086-.3452,2.1941-.9632,2.3446-1.9925a1.1579,1.1579,0,0,0,.1878-.1341,1.7376,1.7376,0,0,0,1.3174-1.1288C42.5209,145.1494,43.7847,144.22,43.1617,142.7646Z"/><path class="cls-2" d="M99.4462,114.5462c-.0127-.0319-.0212-.0648-.0306-.0975a.56.56,0,0,0,.0061-.1546.5436.5436,0,0,0-.0562-.3049.5043.5043,0,0,0,0-.1013.5478.5478,0,0,0-.0451-.2852c-.003-.1072-.0043-.2145-.0078-.3218a.5484.5484,0,0,0-.07-.0117l-.0033-.0315a.3681.3681,0,0,0-.0608.0265.4967.4967,0,0,0-.2773.04.3614.3614,0,0,0-.0948.0485.44.44,0,0,0-.35.3031,19.88,19.88,0,0,1-2.9535,1.7391l-.0517-.0091a.4927.4927,0,0,0-.5277-.2386c-1.002.1411-1.5383-1.682-2.0147-2.364q-.9393-1.633-2.0237-3.1763a18.6905,18.6905,0,0,1-2.1973-3.5706,12.08,12.08,0,0,1-.2862-2.1783.8091.8091,0,0,0-.0147-.3291,17.9329,17.9329,0,0,0-.0678-1.9515.4841.4841,0,0,0-.7007-.4815.474.474,0,0,0-.4554-.3478.4918.4918,0,0,0-.4888.4887,20.4371,20.4371,0,0,0,.4045,2.3057l-2.2514,3.0792a5.3511,5.3511,0,0,0-1.3711,3.0345.4946.4946,0,0,0,.6187.4713,3.9162,3.9162,0,0,1,4.5535,2.3636c.47.9492-.13,2.5152,1.1623,2.8863,1.4525.3222,3.9258.6572,5.4131.9532a.4475.4475,0,0,0,.4018.0707l0,0,1.0447.1836a.4966.4966,0,0,0,.77.1013l1.7966-1.926a.4377.4377,0,0,0,.1445-.1549l.0265-.0284A.6237.6237,0,0,0,99.4462,114.5462Z"/><path class="cls-2" d="M57.4062,114.0942a4.235,4.235,0,0,0-.8305.1838c-3.23-.02-6.24-1.6259-9.4373-1.9948-.7159-.0391-.564,1.0291.14.9968a17.6726,17.6726,0,0,0,1.9472,1.7163,3.9364,3.9364,0,0,0,2.2551,1.1806,5.0628,5.0628,0,0,0,3.4336-.0989c.587-.2415,1.1542-.6012,1.7591-.8231.3318-.0191.8513.07,1.0043-.2968C58.0059,114.686,57.92,114.0368,57.4062,114.0942Z"/><path class="cls-2" d="M30.4448,119.1669c-.4952-.0994-.9892-.1727-1.49-.2431a4.6775,4.6775,0,0,0-.7233-.9546.3864.3864,0,0,0,.0269-.385c-.994-2.1145-3.8744.4049-5.03,1.2478A16.6629,16.6629,0,0,0,19.519,123.08a10.283,10.283,0,0,1,5.56-3.0981,17.5447,17.5447,0,0,1,3.7011-.0971c.0815.0089.1646.02.2457.03q.5824.08,1.1595.1946a.4889.4889,0,0,0,.26-.9426Z"/><path class="cls-1" d="M44.2855,143.8288a5.9392,5.9392,0,0,0-1.368-1.6721.4888.4888,0,1,0-.6912.6912,9.1961,9.1961,0,0,1,.8659.9074c.0467.0627.0917.1264.1344.1917-.114.531-.6258.8849-1.0152,1.2239-.4436.3861-.9.7576-1.371,1.11a25.798,25.798,0,0,1-12.5078,4.9776c-.2614-.3727-.6171-.2813-.8656.09a.5029.5029,0,0,0-.4274.48c-2.3779,2.6341-5.5,4.1932-9.0924,3.5992a9.4676,9.4676,0,0,1-3.9611-.997c-1.3606-.9-2.3452-2.2916-3.6255-3.2751-.078-.4131.04-1.0324-.22-1.3608a.4923.4923,0,0,0-.8344.3456l.0878,1.1546a.49.49,0,0,0,.3413.4635.4742.4742,0,0,0,.1272.2064,34.8225,34.8225,0,0,0,3.2411,3.0388,8.4462,8.4462,0,0,0,4.0923,1.3021c4.425.813,7.8154-.7445,10.7574-4.0307a26.733,26.733,0,0,0,15.0511-6.5016,3.7207,3.7207,0,0,0,1.0637-1.2558A.4967.4967,0,0,0,44.2855,143.8288Z"/><path class="cls-1" d="M31.6916,147.9175c1.7525.1853,3.7707-.0539,4.792-1.6832.3351-.5345-.51-1.0257-.844-.4933-.8242,1.3147-2.58,1.3437-3.948,1.199A.4888.4888,0,0,0,31.6916,147.9175Z"/><path class="cls-3" d="M122.426,158.743a2.3549,2.3549,0,0,0-.4885-.7388c.6163-4.1208-3.1682-7.0592-6.1592-9.2a.5189.5189,0,0,0-.3537-.2051,4.98,4.98,0,0,0-.8795-.3789,3.0753,3.0753,0,0,1-1.42-2.7379.491.491,0,0,0-.96-.13c-.032.1123-.0517.2253-.0736.3382a.4817.4817,0,0,0-.7478.1686,8.7167,8.7167,0,0,0-3.65.3722c-2.6735.3224-5.3626.5589-8.0286.9262a1.9131,1.9131,0,0,0-3.1135-.26c.066-.2558.1236-.5131.1688-.7728a.4811.4811,0,0,0,.3675-.04,12.4442,12.4442,0,0,1,4.1445-1.1675c.3989.0221,1.0081-.1561.8751-.68-.1095-.4061-.542-.3712-.8683-.3013-.5836-.0023-1.1128-.5771-1.5237-.923l-1.78-1.4986a.5051.5051,0,0,0-.5489-.34.4925.4925,0,0,0-.9577-.086c-.5372,1.99-.2453,4.1873-.9757,6.1245a.4973.4973,0,0,0-.1518.2178,8.0453,8.0453,0,0,0-.32,3.36,3.1716,3.1716,0,0,0,.5385,1.846.5082.5082,0,0,0,.11.3081l4.0479,5.2052a17.8341,17.8341,0,0,0,2.14,2.5249,5.7921,5.7921,0,0,0,1.1471,1.529c.7974,1.7305,2.5215,2.493,4.2831,2.9375a43.48,43.48,0,0,0,8.8631,1.2216,12.1212,12.1212,0,0,0,5.6134-1.9337C123.1052,162.6438,122.8679,160.8427,122.426,158.743Z"/><path class="cls-3" d="M59.1848,139.26a.4868.4868,0,0,0-.2479-.1942c-.0045-.3379.0508-.8089-.2785-1.013a.4931.4931,0,0,0-.6687.1753l-.0493.1168a.4915.4915,0,0,0,0,.26l.0059.0372c.0082.07.01.1407.0122.2112a.5648.5648,0,0,0-.37.0826,1.5434,1.5434,0,0,0-.6183-.3623c.5-1.0367.1435-2.5484-1.322-2.404a10.9105,10.9105,0,0,1-3.7663-.2121,3.63,3.63,0,0,0-2.6461-.0893,14.2265,14.2265,0,0,0-2.6541,2.2037c-1.0329.9115-2.4554,1.8705-2.7033,3.3046a.4883.4883,0,0,0-.2462.4916.5073.5073,0,0,0-.3346.7176c.246.49.842.8219,1.0079,1.3388.093.29-.1458.4563-.3118.6671a4.5226,4.5226,0,0,0-.509.8142c-.2582.5275-.4405,1.0869-.6661,1.6281-.3977.9456-1.1275,1.7862-1.1958,2.8464a8.3222,8.3222,0,0,1-1.4055,3.1361c-.2822.2562-.6114.4559-.8918.7146a3.9948,3.9948,0,0,0-.9993,2.2061,18.4759,18.4759,0,0,0-.5365,2.9825,1.8239,1.8239,0,0,0,.2136,1.0054c-.1826,2.6886.7575,5.6441,3.9666,5.4374a25.625,25.625,0,0,1,3.14-.0229c.5108.04,1.0206.1359,1.5341.1323a10.7115,10.7115,0,0,0,4.2-1.4162,9.19,9.19,0,0,0,3.7076-4.1107,8.83,8.83,0,0,0,.4818-3.3619c.03-1.1.0239-2.2-.0065-3.2989.2225-.7908.4591-1.5762.7259-2.3487a13.4942,13.4942,0,0,1,2.0451-3.618,4.5268,4.5268,0,0,0,.6757-.8808c.1764-.2763.5441-.5285.5325-.8757a5.5458,5.5458,0,0,0,.68-2.3007C59.8163,141.9466,59.962,140.41,59.1848,139.26Z"/><path class="cls-4" d="M89.2773,79.1353a32.57,32.57,0,0,1,12.8109-3.0881.489.489,0,0,0,0-.9775C101.14,74.3912,85.02,78.1745,89.2773,79.1353Z"/><path class="cls-4" d="M83.7344,70.8936a.4918.4918,0,0,0,.6012-.3414,17.7643,17.7643,0,0,1,2.1028-6.2691c1.006-1.9682,2.8-3.4019,3.6876-5.4307.2407-.5805-.7047-.8337-.9426-.26a11.7076,11.7076,0,0,1-1.8868,2.6963C85.7924,63.1124,82.5741,68.8106,83.7344,70.8936Z"/><path class="cls-4" d="M91.2153,76.3741c3.2161-2.8268,7.8242-4.3466,10.0892-8.0748.28-.5614-.5626-1.057-.8445-.4938-1.4852,2.9681-5.018,3.9549-7.4194,5.9788a18.9941,18.9941,0,0,1-4.2231,2.8121c-3.1413,2.2051-6.1538,4.6033-9.3633,6.719-1.1964,2.6627,3.8073-1.5888,4.3947-1.8865a.5053.5053,0,0,0,.4672-.0577c5.209-1.1144,10.9721,1.2916,15.8146-1.6429.5368-.3264.0461-1.1721-.4933-.844-4.2921,2.5374-9.4336.7686-14.0987,1.3165A36.38,36.38,0,0,1,91.2153,76.3741Z"/><path class="cls-4" d="M94.0045,56.4423c0-.0165-.002-.0255-.0045-.0275,0,.0072,0,.0144,0,.0217Z"/><path class="cls-4" d="M106.47,71.0245c-.914-1.9735.8972-5.3913-1.8531-6.2071.1943-.7008-.8559-.8909-1.1324-1.4243-.6375-1.5766-.958-1.32-2.2569-2.019-1.3834-2.5121-1.8044-1.2495-3.4165-2.864-.984-1.1865-2.6568-1.0941-3.8067-2.0678a.3492.3492,0,0,1-.0064.0647.6381.6381,0,0,0,.0015-.07c-.0075-.0135-.0038-.025,0-.0217-.0637-2.0785-2.2912-2.9173-3.8278-3.8184-.2169.2272-.51.5146-.5173.8335,5.7361,2.8834,2.0727,2.7128,2.8718,6.7849,1.44,1.7415,3.0233.759,1.073,3.6419-.372.5079.4758.9961.8442.4933.6951-.9489,1.6433-2.7285.4376-3.6457-1.9161-.7394-1.8362-1.538-1.0928-3.2727,1.0476.9275,2.5136.8151,3.4825,1.8313,1.1358,1.4936,2.1623.51,3.2652,2.8024a1.96,1.96,0,0,0,.96.5537c1.0983.2586,1.0928,1.8081,2.2234,2.2864a10.14,10.14,0,0,0-1.7371.9469.4891.4891,0,0,0,.4934.844c3.5417-2.49,2.5949.7978,2.7208,3.1516a4.9215,4.9215,0,0,1-2.1921,5.8,39.4978,39.4978,0,0,1-4.537,1.892c-2.1227,2.6437,6.5924-1.4941,6.6916-2.4261.55,4.9486-4.7018,7.0017-8.7549,7.5166-1.9017,2.0437,4.6144-.0778,5.194-.433-2.9362,5.57-7.3665,10.2321-11.232,15.1849-.4286-.001-.697.4789-.751.8581-1.3579,1.4622-2.0609,3.3878-3.2362,4.9811-.8964-.7559-.9365.8611-1.254,1.3627-.8032.6884-1.8387,1.3432-1.8488,2.5148a3.1975,3.1975,0,0,0-.1684.313,11.2949,11.2949,0,0,1,.3743-3.7135c-1.2965-2.8456-1.6823,4.6514-1.0372,5.3564-5.1311-.3184-9.9282-4.286-15.1967-2.0068-1.2631.4481-2.6,1.3247-3.9873,1.2594a6.1562,6.1562,0,0,0,.8676-.8716c2.65-3.6612,4.2989-1.13,5.8352-2.6432.87-.6851-.226-2.3307-.4641-3.2229a1.848,1.848,0,0,0,.7-2.3016c1.092-.5279,1.777-1.2639,1.4394-2.57-.0047-.1189-.0038-.3583.1479-.3421a.489.489,0,0,0,0-.9775c-1.9442.1-.38,2.2734-1.5317,2.73-1.9941.7141-.0864,1.9144-1.4793,2.8336-1.484-.6061-2.27-.217-2.967,1.1948-.3843,1.124-1.559,2.125-1.2547,3.3852a5.62,5.62,0,0,0-.9934,1.1638,11.5159,11.5159,0,0,0-2.6,3.0017c-.7437.9279-1.9759,1.4131-2.3394,2.64-.2409.8676-1.0792,1.3963-1.1326,2.3141a.4765.4765,0,1,0,.92.2055c1.997-.2054.97-2.8464,5.4141-5.52.9142-.2618,2.4342-.139,2.9316-1.0359,5.3935-2.8478,10.4425,1.5625,15.795,1.7349-.16.6947.8895.83.9726.1239a9.41,9.41,0,0,1,.3311-1.9519c.88-1.7443,2.4541-3.1208,3.5666-4.7519a36.2055,36.2055,0,0,1,3.0063-4.6751c4.414-5.5329,9.6127-10.8157,12.5411-17.3217C107.0754,79.0987,105.6783,74.8215,106.47,71.0245Z"/><path class="cls-4" d="M105.2554,73.5964c.648-2.0717.39-4.5084.4362-6.6467a1.6476,1.6476,0,0,0-2.4515-1.4068c-1.4371.7123-1.7728,2.2568-2.8532,3.3169-4.7212,3.7289-9.73,7.219-14.6561,10.6872a1.5692,1.5692,0,0,0-.7443,1.2542,10.173,10.173,0,0,0-4.0811,2.378c-1.0468-1.0946-2.5348,1.4623-3.1237,2.2273a.4435.4435,0,0,0-.3364.2489.7671.7671,0,0,0-.2534,1.2454q.1219.04.0509.0907c-.2892,1.0037-1.3674,1.2915-1.89,2.08-.1584.7525.0852,1.6369-.68,2.1474a1.9938,1.9938,0,0,0-1.05,1.9958c-.2071,1.0887-1.6513,1.8466-1.6808,2.9217-.02.0263-.0373.0533-.0556.08a.4922.4922,0,0,0-.3848.8921c-.107.9477-.9691,1.4512-1.5014,2.1659-.253,1.3113-1.4163,2.6884-.3349,3.8925a1.3756,1.3756,0,0,0-.093.2581c-.7785-.1622-1.77-.0815-2.0163.6772-1.4863.486-4.1477,1.4959-3.7869,3.4315-2.3728,2.6256,2.9392,4.4974,2.5369.8859,1.1576-1.3072,2.85-.9229,4.18-1.6648,4.0125-.7864,12.475,5.39,12.693.8612,1.1031-1.4593,3.56-2.1829,3.29-4.3385,4.5472-7.0726,10.72-13.393,15.1253-20.4735a1.8293,1.8293,0,0,0,.4137-1.4542C105.5655,80.6147,106.0342,76.5135,105.2554,73.5964Z"/><path class="cls-4" d="M94.0672,61.3154c-3.6529-1.9733,2.4271-5.1446-3.9115-7.7571.6791-.2424.397-1.2758-.3266-.9626a5.63,5.63,0,0,0-1.6352,1.869c-1.4552,2.278-3.75,3.8386-5.2454,6.0617a23.019,23.019,0,0,1-2.7034,4.1983c-2.7613,3.0117-5.5317,6.0791-8.1381,9.1792C62.4,76.8362,60.2346,63.9264,60.5655,56.9208a57.1345,57.1345,0,0,1,1.6024-7.7515c.5457-1.5406,1.3382-2.9537.64-4.61a.4922.4922,0,0,0-.4682-.8362c-1.8363.0511-5.7643.3511-7.5513.49-3.6682.998-7.2884,2.661-11.14,3.1676-3.5769.2179-6.5982,2.1109-9.9681,3.0381-1.653.41-1.9492,2.1707-2.9509,3.3029-2.6271,2.35-3.9217,5.7781-4.8939,9.0917-.48,2.8158-.8833,5.58-1.6129,8.34-.3252,2.32.446,4.9073-1.0963,6.9108-.5083.8864.8564,1.4972,1.3113,2.11.4522.4379,1.1442-.2526.6914-.6913l-.6236-.6042a8.4054,8.4054,0,0,1,6.9952,4.5732c.28.5633,1.1237.0687.844-.4933a9.24,9.24,0,0,0-4.267-4.15c.6736.0877.7647-.9848.082-.9728-1.7463-.25-1.3267-2.6915-1.77-3.9645C25.23,67.34,26.5512,59.4347,31.2872,54.556,32.4,53.64,32.5047,51.8647,33.94,51.3608a20.6936,20.6936,0,0,0,4.3482-1.6214c4.107-1.6188,8.6741-1.6406,12.7827-3.3034a23.5489,23.5489,0,0,1-4.4724,3.7766.478.478,0,0,0-.1951.5722c-.9881,2.7262,6.1309-2.1774,6.9026-2.5494a12.805,12.805,0,0,1,7.1278-1.9173c.1868,2.59-.888,4.9165-1.2269,7.4359-.2394,3.0484-.6953,6.5334.0363,9.4283.73,7.2844,5.5615,15.3432,13.8613,12.0013,2.2126-2.1207,4.05-4.6409,6.1217-6.91-1.0139,1.9639-4.68,5.0811-3.5262,7.2671a88.2678,88.2678,0,0,1-2.0342,11.6465.4892.4892,0,0,0,.9427.26c1.3867-4.2794,1.2431-8.88,2.4882-13.1564,2.7954-3.6536,5.1046-7.7051,8.4819-10.8306a60.0825,60.0825,0,0,0,4.37-4.8507c-.0252.2159-.0434.4322-.0629.6484-.5906-.162-.6839.5917-.8785.9762-.1756.0974-.2461.3348-.351.5019-.4946.137-.6174.8762-.9223,1.254-1.2937-.3031-1.3723,2.4422-2.0818,3.2028-1.074,1.3519-2.4832,2.6543-2.7923,4.4216.1455,1.3286,1.1677.162,1.4814-.4335-.5176,2.2177-2.5931,3.3509-3.8463,5.1026-1.5585,2.1838-1.3166,5.1059-2.7666,7.3378-.3473.5267.4989,1.0169.844.4933,1.3876-2.1047,1.2305-4.7915,2.5048-6.9339.9359-1.637,2.7785-2.5793,3.61-4.2784A19.3647,19.3647,0,0,0,91.53,62.4946a.4024.4024,0,0,0,.0806.0668c.0412.6269,1.0217.6658.98.019l-.079-1.173a5.2674,5.2674,0,0,0,1.1933.8267c-.1891.485-.4182.9592-.6207,1.44-.2494.5708.5925,1.069.844.4933C94.24,63.2516,95.4466,61.8766,94.0672,61.3154ZM26.1968,77.5a2.5,2.5,0,0,0,.6208.8082,9.0462,9.0462,0,0,0-2.4507-.4161c1.0146-1.6366.6745-3.6518.7407-5.4806A49.19,49.19,0,0,0,26.1968,77.5Z"/><path class="cls-4" d="M102.8174,63.3354c-1.8674-1.0213-2.6888-3.1351-4.7268-3.8281-.4265-1.2738-2.2139-1.22-3.1294-1.75-1.134-1.0455-3.3462-.4136-3.31,1.2872a1.96,1.96,0,0,0-3.074,2.0383c.2292.7522.4712,1.5.7195,2.2446a6.0338,6.0338,0,0,0-1.0058.841C86.99,58.734,82.1,65.5574,80.9739,67.6947c-3.6793-1.1261-5.2836,8.1164-12.0106,7.933a9.6589,9.6589,0,0,1-7.1828-4.5046c-.5129-1.1939-.6025-2.5758-1.2984-3.6111-.514-2.8786-.9425-5.767-1.3659-8.66a56.4342,56.4342,0,0,1,2.0092-10.0832A2.0314,2.0314,0,0,0,59.19,45.4735a13.1546,13.1546,0,0,0-4.5133,1.6725,1.84,1.84,0,0,0-2.9345-.7791c-1.7324-1.1484-4.8508,1.1581-6.9751,1.1375-5.5737.2334-5.3884,1.3716-9.977,3.3614a1.8641,1.8641,0,0,0-2.36,1.6758c-5.33,4.7044-7.1387,12.2109-7.0582,19.0261a1.5915,1.5915,0,0,0-1.007,1.7149c.4105,2.1186-1.0172,4.3736.1192,6.3287-1.282.5855-1.1624,2.2482-.5987,3.3084a2.1864,2.1864,0,0,0,.4072,3.6134c-.3531,1.8115-.5965,3.8049.2778,5.5132-.1712.9591-.9043,1.91-.3183,2.89a.439.439,0,0,0-.0293.06c-1.0478-.275-1.2256,1.1362-.6835,1.7581.0119.8641-.3254,1.8525.1238,2.6425a1.3088,1.3088,0,0,0,.6051,1.2841,2.2873,2.2873,0,0,0-.6535.8114c-1.2122.9953.1133,2.4755.973,3.1967.0279.0759-.022.16-.0087.2411a.5261.5261,0,0,0-.1155.408l-.0042.0073c-.0007-.0591-.0155.0485-.0154.04-.58.6353-1.5275,1.561-.7942,2.4417a1.3451,1.3451,0,0,0,.6463,2.3468c-.448.8113-.129,2.307.9237,2.4284-.9032.6606-1.423,2.0052.2365,1.592-.1355.6064-.0112,2.25.9371,1.5875.056.8521.9714,1.2686,1.612,1.7218-.4375,1.1907.7407,2.167,1.8281,2.2985.38.7831,3.2691,1.9517,2.3815.2662.4232.0592,1.0914.1963,1.12-.4187,4.249-.1536,9.7147,1.1551,13.2574-1.5625a1.882,1.882,0,0,0,2.9142-1.6111,4.0233,4.0233,0,0,0,.5811.417.4891.4891,0,0,0,.4933-.8441c-1.3629-.9556-2.3078-2.4416-3.5114-3.5854,3.92.2194,8.2391,3.52,11.9805,1.5352.483-.3908-.1875-1.0637-.6716-.7047a3.3909,3.3909,0,0,0,.848-1.2529,1.8952,1.8952,0,0,0,.67-1.1609c2.4231-1.0159,3.8445-3.9456,5.5035-6.0962,2.9042-.1657,15.1205-3.6513,7.6062-6.7831a1.5946,1.5946,0,0,0-.2541-.95,2.1826,2.1826,0,0,0,.6073-1.6425c2.0814.0363,6.9833-1.69,4.3865-4.3419a1.973,1.973,0,0,0-.2979-3.107c1.8265.3357,3.9461-.186,3.56-2.4245,2.1529-.4285,5.4093-.3835,6.8116-2.3355.8323-.0532,1.6645-.1171,2.4961-.2019,3.1209-.5174,1.9718-4.4432-.9227-3.9378,1.7284-.6859,4.8007-2.6387,2.9605-4.5842q.804-.3378,1.5939-.7051a1.8835,1.8835,0,0,0,2.5273-1.3089c2.8176-1.3633,4.671-3.88,6.7361-6.081A1.9517,1.9517,0,0,0,102.8174,63.3354Z"/><path class="cls-1" d="M84.4485,46.9017a10.0614,10.0614,0,0,1-3.4461,1.1529,14.0232,14.0232,0,0,1-5.235-.5811c-.8811-.4269-1.7075-.87-2.5611-1.3708A10.12,10.12,0,0,1,71.8234,44.85c-.01-.0634-.0191-.127-.0235-.1923a.4891.4891,0,0,0-.9776,0,27.0288,27.0288,0,0,0-.0573,2.7686.599.599,0,0,0,.0309.6367,1.2279,1.2279,0,0,0,1.05,1.2668c1.2865.5315,2.8522.3706,4.2091.7387A27.5151,27.5151,0,0,0,80.1992,51.26c2.2678.5259,3.507-.3121,4.5106-2.3272.2946-.3221.93-1.2249.4894-1.6461C85.1965,46.9516,84.74,46.7636,84.4485,46.9017Z"/><path class="cls-1" d="M99.0848,33.1909c-.4287-.8738-1.7281.1221-1.7759.7524a3.7534,3.7534,0,0,0-.03.9136c-.5152.1612-.2946.8138-.4357,1.2041a8.1737,8.1737,0,0,1-.5035,1.4184c-.1039.3517-.2674.7979-.0461,1.1321-.1586.4214-.314.8439-.444,1.2754a.491.491,0,0,0,.8933.3766,16.8431,16.8431,0,0,0,2.0624-4.6525A4.12,4.12,0,0,0,99.0848,33.1909Z"/><path class="cls-1" d="M71.4407,44.5122a.5443.5443,0,0,0-.3767-.6292.5026.5026,0,0,0-.6991-.0928.4878.4878,0,0,0-.1259.63,2.588,2.588,0,0,1,.1471.2853,2.5363,2.5363,0,0,1,.1387.5142c-.0393.5058.4307.8657.8474.5043.2728-.2985.0915-.7527.02-1.1A.3984.3984,0,0,0,71.4407,44.5122Z"/><path class="cls-1" d="M86.0587,46.6853c-.5289-.0551-2.1441.0011-1.9529.819a.4914.4914,0,0,0,.6013.3414,3.0676,3.0676,0,0,1,.6645-.1814c.3389-.0835.7577.1224,1.0327-.1446A.4914.4914,0,0,0,86.0587,46.6853Z"/><path class="cls-1" d="M74.62,47.39a6.0277,6.0277,0,0,1-1.9015-1.6824,6.1516,6.1516,0,0,0-1.6853-1.9556.4891.4891,0,0,0-.4934.8441c.6869.4194,1.01,1.2156,1.4992,1.8237a7.0453,7.0453,0,0,0,2.0877,1.8143A.4891.4891,0,0,0,74.62,47.39Z"/><path class="cls-1" d="M96.15,29.5537a23.1874,23.1874,0,0,1-2.1126-.9583.8582.8582,0,0,0-.2479-.1273l-.0781-.0408a.4246.4246,0,0,0-.2378-.2972,17.81,17.81,0,0,0-3.3294-1.3209.4854.4854,0,0,0-.25-.1837c-.774-.2622-1.5565-.5018-2.3494-.7006a4.1332,4.1332,0,0,0-2.2073-.1767c-.6382-.12-1.2808-.2132-1.9251-.2941a.4977.4977,0,0,0-.4592-.3574l-3.2773-.2314a.4668.4668,0,0,0-.4143.2366,4.0647,4.0647,0,0,1-1.4132-.1544,13.6764,13.6764,0,0,0-1.8565,0,.4888.4888,0,1,0,0,.9775c.6062.0093,1.2223-.0655,1.8244-.0031a4.26,4.26,0,0,0,1.3442.1672c.1081.0673.2477.1168.3988.204a10.6634,10.6634,0,0,0,.2573,1.1612c-.011.0057-.0209.0127-.0322.018-1.3181.364-2.8246-.4651-4.071-.8448-1.88-.5727-3.8465-.2412-5.7693-.4567a.3856.3856,0,0,0-.4035.1865.38.38,0,0,1-.2524-.0984c-.0766-.1149-.0052-.37.0186-.4931.0534-.2768-.1307-.6577-.4713-.6186a11.36,11.36,0,0,1-1.5375.07,2.7406,2.7406,0,0,0-.5944-.3693.3642.3642,0,0,0-.1817-.058.44.44,0,0,0-.3611.0962.4778.4778,0,0,0-.1751.5138l.0492.1167a.4914.4914,0,0,0,.1754.1754c.0257.0114.0494.0264.0747.0386-2.7254,4.5441-1.9126,6.4367-1.9663,11.3329a7.746,7.746,0,0,0,.0543,1.8321,16.58,16.58,0,0,0,1.9359,3.6216,16.0375,16.0375,0,0,0,1.2236,1.8452.4475.4475,0,0,0,.7776-.1981.4362.4362,0,0,0,.189-.2055c.3278-.6848.6392-1.3809.9884-2.0551a5.2058,5.2058,0,0,1,1.8822-1.7608c.6418-.0694,1.27-.2289,1.91-.3061a11.5633,11.5633,0,0,1,3.8146.236,6.1574,6.1574,0,0,0,1.3065,1.4839c-.3154-.0663-.7243-.1374-.8733.2339a.5046.5046,0,0,0,.0346.4392.4611.4611,0,0,0-.1739.6688,11.7928,11.7928,0,0,1-1.9715.0492c-.6249-.0659-.62.912,0,.9775a9.958,9.958,0,0,0,2.1628-.0594,2.9558,2.9558,0,0,1,1.97.3949,12.271,12.271,0,0,0,1.7,1.0474,6.4933,6.4933,0,0,0,1.9121.3308c.6278.0445.625-.9332,0-.9775a4.3305,4.3305,0,0,1-1.8924-.4215c-.5383-.3094-1.0036-.7142-1.5585-.9952.31.1092.7518.0212.7832-.3689.5609.0728.9969-.5349.5437-.9563.7438-.1392,1.4149-.6086,2.16-.7186.4888-.0564.7522.2589,1.054.5848a3.114,3.114,0,0,0,.8466.6865,1.5634,1.5634,0,0,0,.698.6092c.365.133.6648.0992.9642.3931,2.1143,2.2363,1.1824,3.0885.7907,5.6618-.3212.3409.1263.9949.63.7411a9.524,9.524,0,0,0,4.7679-5.6423c.41-1.3916.4289-2.91,1.2887-4.136a7.5952,7.5952,0,0,0,1.0152-1.9126,59.0776,59.0776,0,0,0,.9459-7.29.6118.6118,0,0,0,.2289-.6145A.49.49,0,0,0,96.15,29.5537ZM94.4523,31.836c-.5974-.3931-1.2244-.7527-1.8491-1.1006a6.2313,6.2313,0,0,0-1.7857-.5987c-.6027-.1269-1.1559-.3749-1.7455-.5427-.9429-.2649-1.9426.0328-2.8473-.4017-.3055-.119-.4363-.2654-.2-.5491.3506-.42,1.1334-.4836,1.6331-.5859a9.0091,9.0091,0,0,1,1.3433-.1774.402.402,0,0,0,.3361.1361,5.2959,5.2959,0,0,1,2.304.6753,8.7859,8.7859,0,0,1,2.2711,1.2126,3.0724,3.0724,0,0,1,.6808,1.2044Z"/><path class="cls-1" d="M64.5073,27.21a5.8638,5.8638,0,0,0-.6753-1.9311.5014.5014,0,0,0-.5786-.2183c-.409-.5961-1.1715-1.1594-1.8556-.6235A1.8977,1.8977,0,0,0,60.84,25.97a42.2938,42.2938,0,0,0-.0924,4.2473,7.2275,7.2275,0,0,1,.2176,1.9631,15.4919,15.4919,0,0,0,.3992,4.4127,1.7347,1.7347,0,0,0,1.0932,1.4162c.3792.1311.6669-.2632.6012-.6012-.3313-2.0282-.9962-4.3062-.019-6.2458a.4863.4863,0,0,0,.1967-.1177l.0078-.0062c.5032-.3206,1.0232-.8419.87-1.4929a.483.483,0,0,0-.2352-.2969,3.3832,3.3832,0,0,0,.0821-1.2224.4725.4725,0,0,0,.0893-.199A.4926.4926,0,0,0,64.5073,27.21Z"/><path class="cls-1" d="M83.4277,57.9405c-.3.5842-.62,1.1561-.951,1.722a2.2323,2.2323,0,0,0-1.7508-1.2887c-2.7948-.2726-5.5515.4008-8.34.2163-2.8722-.19-4.2551-1.6179-5.6138-4.024a1.7753,1.7753,0,0,0-1.289-.9117q.2528-1.6194.6431-3.2217a2.0031,2.0031,0,0,0-2.562-2.336c.0612-.1587.1162-.3195.18-.4772.2359-.5829-.7092-.8365-.9426-.26A31.8743,31.8743,0,0,0,60.817,63.7714a24.306,24.306,0,0,0,1.3091,5.434C63.51,72.891,67.8,75.6367,71.6989,74.2915a4.2,4.2,0,0,0,1.7022-1.8263,14.0093,14.0093,0,0,1,1.8118-2.047,49.9922,49.9922,0,0,0,9.0589-11.9844C84.5584,57.8751,83.7153,57.38,83.4277,57.9405Z"/><path class="cls-5" d="M98.7506,32.0948a.52.52,0,0,0-.1558-.2325.4534.4534,0,0,0,.1307-.47,1.7664,1.7664,0,0,0-1.2023-1.012,1.9832,1.9832,0,0,1-.3277-.1762.543.543,0,0,0-.5033-.2083c-.6-.0237-.63.7767-.6893,1.2144-.2108,1.3576-.1543,2.7561-.2553,4.13-.1338.6719.0254,1.363-.0746,2.0354-.07.2566-.1391.5131-.2123.7685-.4136,1.0862-1.2061,2.0219-1.66,3.09-.683,1.62-.9187,3.4053-1.7083,4.9893-1.2194,1.1731-2.1247,2.7373-3.67,3.5533a.4267.4267,0,0,0-.2926-.1256,1.1875,1.1875,0,0,1-.3557-.9677,4.2732,4.2732,0,0,0,.2411-3.219,3.6923,3.6923,0,0,0-.5867-1.4186,1.55,1.55,0,0,0-1.1047-.9427c-.12-.0274-.3033-.0238-.3952-.1061a.4706.4706,0,0,0-.4118-.12c-.4746-.3547-.7963-.9112-1.2747-1.2664a1.8865,1.8865,0,0,0-1.8434-.2859,6.8143,6.8143,0,0,1-2.3175.536.4508.4508,0,0,0-.4434.3172,1.744,1.744,0,0,0,.72,2.2947c.388,1.06,1.6152,1.2,2.5559,1.4861q.0836.034.0339.0109a.6416.6416,0,0,0,.3777.043.4373.4373,0,0,0,.3121.1,1.5323,1.5323,0,0,1,1.5711,1.0033.486.486,0,0,0,.0246.384c.242.5011-.2469,1.119-.5263,1.5042-1.5271,2.2628-1.7046,2.2828-4.4195,2.3239-.2555-.0551-.5116-.1057-.7685-.15a23.8834,23.8834,0,0,0-6.438-1.5238c-.1069-.0251-.2139-.0507-.3212-.0743A11.0038,11.0038,0,0,0,71.411,48.95a5.35,5.35,0,0,1-.6536-1.5146,5.35,5.35,0,0,0-.0055-1.6154c.0633-.6306.1506-1.2583.2658-1.882,1.4146-.6846,3.0359-.0752,4.5318-.0141a2.744,2.744,0,0,0,1.9114-.38A5.243,5.243,0,0,0,78.75,42.0854a.4311.4311,0,0,0-.2076-.6572.5412.5412,0,0,0-.3478-.2092c-.02-.0105-.0393-.0224-.0582-.0346-.0192-.018-.0381-.0364-.0554-.0562a2.3813,2.3813,0,0,0-.4155-.5556,1.7605,1.7605,0,0,0-1.5275-.7255,5.0777,5.0777,0,0,0-3.6629.0223,2.5819,2.5819,0,0,0-.848.2291,1.4144,1.4144,0,0,0-1.0744.5723,2.5841,2.5841,0,0,0-1.32,1.5025,5.7944,5.7944,0,0,0-.7887,1.1615,3.2253,3.2253,0,0,1-.8176.6478,10.12,10.12,0,0,0-1.2141-1.6632,6.1193,6.1193,0,0,1-1.6084-2.8882,25.4594,25.4594,0,0,1-.2749-4.1721c-.0224-1.4.009-2.8043.1142-4.2008a6.9166,6.9166,0,0,1,1.1733-3.8023.4576.4576,0,0,0,.0893-.1867,9.7833,9.7833,0,0,0,.4993-1.4318c-.0032-.785-1.0588-.6642-1.6017-.8178-.0356-.0107-.07-.0252-.1045-.0386a3.6381,3.6381,0,0,1-.7153-.4176,3.4277,3.4277,0,0,1-.3905-.3682.7609.7609,0,0,0,.1662-.49.5436.5436,0,0,0-.1432-.3456.4923.4923,0,0,0-.83.2829.9769.9769,0,0,0-.2042.4553.5385.5385,0,0,0-.0419.1666.3335.3335,0,0,0-.015.0841.3714.3714,0,0,0,.0087.1949l.0493.1168a.37.37,0,0,0,.1259.1371.2438.2438,0,0,0,.1078.0628l.0175.0065a2.755,2.755,0,0,0,.6645.6424.62.62,0,0,0,.0733.418c.0758.134.21.22.2647.3616A15.0392,15.0392,0,0,1,63.7565,29.7a.45.45,0,0,0-.2181.4027.3568.3568,0,0,1-.0445.2481.7692.7692,0,0,1-.0643.0755.4511.4511,0,0,0-.1488.3058c-1.347,2.0931-.9621,4.0269-.47,6.3a13.1185,13.1185,0,0,1-.2544,4.0662c-.4211,2.726.3413,5.4087.7864,8.0831a22.3454,22.3454,0,0,0,.9166,3.9748,22.5651,22.5651,0,0,0,4.1018,6.2521A8.9267,8.9267,0,0,0,74.1936,61.84c2.22.1892,4.7573.1085,6.6236-1.2372a3.5307,3.5307,0,0,1,1.7209-.699,4.9224,4.9224,0,0,0,1.5448-.7309,14.4767,14.4767,0,0,0,2.5655-2.5208,47.6716,47.6716,0,0,0,9.8117-18.43c.04-.123.0748-.2467.1026-.3707.3027-1.1449.6251-2.2965.8226-3.463.0779-.275.1108-.5637.1722-.8435a.5663.5663,0,0,0,.1614-.2466,1.5173,1.5173,0,0,1,.1262-.2192,1.5936,1.5936,0,0,1,.2193-.2176,1.5564,1.5564,0,0,1,.2013-.1164A.5381.5381,0,0,0,98.7506,32.0948Z"/><path class="cls-5" d="M79.9629,26.5307a.38.38,0,0,0-.1763-.2057c-.3145-.3312-.7482-.2783-1.157-.3573q-.1462-.0564-.2914-.1164a2.5831,2.5831,0,0,0-1.6078-.6481,12.2209,12.2209,0,0,0-7.5536-.0851.4724.4724,0,0,0-.3375.521.53.53,0,0,0,.2662.5546.4793.4793,0,0,0,.5591.2825,14.7737,14.7737,0,0,1,4.793.1852,8.9708,8.9708,0,0,1,2.3367.4033,8.0541,8.0541,0,0,0,1.954.75C79.5371,27.9476,80.4762,27.4114,79.9629,26.5307Z"/><path class="cls-5" d="M94.4051,30.2894a8.1937,8.1937,0,0,0-2.9881-1.9931c-1.5332-.6882-3.243-.3537-4.8712-.4025a.4582.4582,0,0,0-.4663.5084.5009.5009,0,0,0,.0434.8075c1.0807.6883,2.4557.4342,3.6593.6932a8.1972,8.1972,0,0,1,3.411,1.6051c.4.3224.98.7369,1.4655.3017C95.1655,31.3551,94.7353,30.6919,94.4051,30.2894Z"/><path class="cls-3" d="M102.0265,31.9106a14.9356,14.9356,0,0,1-2.1886-3.533.482.482,0,0,0,.0309-.3149c-.0733-.3327.2047-.6414.3821-.8938a2.4819,2.4819,0,0,0,.4356-.8781,7.2709,7.2709,0,0,0-.0476-2.0388c-.156-1.5976-.1567-3.2361-.3946-4.815a8.3782,8.3782,0,0,0,.2382-6.4068,12.0331,12.0331,0,0,0-2.4319-3.8186C96.23,6.9753,94.123,4.7331,91.2724,3.9a.4568.4568,0,0,0-.3055.0085A4.4711,4.4711,0,0,0,90.31,2.9a1.9407,1.9407,0,0,0-1.3815-.5782c-1.0049-.081-1.6353-.9581-2.6134-1.1621A2.9183,2.9183,0,0,1,85.0153.5671a.4428.4428,0,0,0-.4937-.1089.4724.4724,0,0,0-.2729-.0844,7.3787,7.3787,0,0,0-5.09,1.2852.4332.4332,0,0,0-.45-.33c-1.332.03-2.6913-.0152-4.0172.1241A27.1415,27.1415,0,0,0,70.9,2.26a3.1669,3.1669,0,0,0-1.484.7414,6.089,6.089,0,0,0-.96,1.4663q-.9945,1.8008-1.99,3.601a14.4991,14.4991,0,0,0-2.1376,5.5851c-.4154,2.2906-.789,4.5895-1.1821,6.884a.4928.4928,0,0,0,.05.32,2.2473,2.2473,0,0,0-.14.7481c-.0461.3377-.1107.6757-.1889,1.0089a.4049.4049,0,0,0-.108.1932L62.5159,24.01c-.0039.0193-.0054.0385-.0078.0578a3.6494,3.6494,0,0,1,.5779-.9711,2.5127,2.5127,0,0,0,1.5021,1.8967,9.5234,9.5234,0,0,0,.9707.2187l-.0106.01c.1933.0311.3882.0516.5823.0679a1.2954,1.2954,0,0,0,.4189.0281c6.3131.0225,12.6807-.7326,18.939.4528,5.3975.9242,10.2586,3.5925,14.7195,6.6686.572.3853,1.2257.6513,1.8186.1617A.4979.4979,0,0,0,102.0265,31.9106Z"/><path class="cls-1" d="M85.3563,109.7837a22.73,22.73,0,0,1-4.3609-.26,39.5055,39.5055,0,0,1-4.295-1.15c-1.4364-.4279-2.8674-.8948-4.3166-1.2772a6.2993,6.2993,0,0,0-2.0863-.2571,19.9087,19.9087,0,0,0-4.3086,1.56c-.4206.177-.9714.4509-1.0217.8907a.4956.4956,0,0,0-.3808-.0846,2.6341,2.6341,0,0,0-1.2852.5739.5019.5019,0,0,0-.3406.1559,11.3084,11.3084,0,0,0-2.1789,2.071,4.7588,4.7588,0,0,0-1.2041,2.424c-.04.3243.3435.5449.6187.4713,2.1231-.5685,4.3541-.374,6.5092-.7481a.4932.4932,0,0,0,.2157-.8169q-.1-.1083-.1885-.2238c.4858-.1957.8591-.9624.2045-1.1917-.31-.0743-.622-.1437-.9368-.1911-.3652-.6446-1.136-.4609-1.727-.6733-.147-.0457-.1063.0092-.1272-.1357-.012-.0834-.0179-.1681-.0262-.2524.0926-.132.1879-.2621.2784-.3957.2461-.1237.7113-.0835.782-.4006a.4988.4988,0,0,0,.8175-.4432l.0382.0037c.296-.1122.6015-.2635.9025-.3809a.5921.5921,0,0,0,.4558.3668,37.17,37.17,0,0,1,7.9011,1.467.3943.3943,0,0,0,.2493.3386c.7388.3385,1.49.6459,2.2477.938a13.8219,13.8219,0,0,0,4.0086,1.3074c.5926.0962.8662-.7365.3-.9282.1383-.1416.27-.2955.4021-.4445l.21.0487a.5.5,0,0,0,.4552-.8456.4836.4836,0,0,0-.1284-.5777c.7706.0426,1.5434.0507,2.3163.0385A.489.489,0,0,0,85.3563,109.7837Z"/><path class="cls-6" d="M139.9842,140.223a18.9161,18.9161,0,0,0-4.8892-5.5712c-2.338-1.803-4.914-3.3174-7.2232-5.1729-.7307-.5772-1.4237-1.2011-2.1627-1.7676a52.2906,52.2906,0,0,0-5.1324-3.1853,22.6022,22.6022,0,0,0-2.6254-1.4235,8.7627,8.7627,0,0,0-1.5254-.8837,21.9007,21.9007,0,0,0-6.668-2.288,30.5985,30.5985,0,0,0-4.2639-1.314,80.69,80.69,0,0,0-8.8314-2.3322c-3.7374-.8975-7.5446-1.4466-11.3465-1.9943-1.5113-.56-2.9745-1.3949-4.6249-1.4155a10.4313,10.4313,0,0,1-1.5632-.3343c-1.5445-.5549-2.8094-1.7084-4.3854-2.1956a9.11,9.11,0,0,0-1.833-.3088,36.9265,36.9265,0,0,1-4.0142-.9716,29.5531,29.5531,0,0,0-4.5526-.6366.4981.4981,0,0,0-.4888.4888l-.1033,1.26c-.0325.3956-.1394.7677.1779,1.0655a2.5019,2.5019,0,0,0,1.4175.4986c.1669.0257.4676.0348.597.1615.158.1547.07.5362.127.7456.1541.5079.4855.7185.9169,1.0483q-2.087.1013-4.169.2761a.3928.3928,0,0,0-.28-.0867l-1.4772.1526a7.1783,7.1783,0,0,0-1.8408.286,20.43,20.43,0,0,0-3.5558.8123q-3.8165.5935-7.5705,1.5232a23.5028,23.5028,0,0,1-2.5838.5908.5528.5528,0,0,0-.4383.2784c-2.1027.4753-4.0884,1.4914-6.2764,1.526q-.3054.0089-.6109.0083c-.6907-.1364-1.3974-.2113-2.0934-.3265-1.2143-.1683-2.5558-.5982-3.67.1281-1.5112.8605-1.8032,1.7187-.8583,3.21a2.054,2.054,0,0,0,.5189.902c-.9827.2079-1.8053.8418-2.7634,1.1374-1.3174.4468-2.6878.7394-3.9622,1.3088a13.4869,13.4869,0,0,1-1.9078.8207,23.7911,23.7911,0,0,1-4.5326.1841c-1.8231-.002-3.6481-.0588-5.47-.06a47.899,47.899,0,0,0-9.7228.6784c-1.1041.2082-3.1363.43-3.2761,1.8928-.0791.8277.5917,1.4407,1.0964,2.0025l2.8627,3.1862a2.9177,2.9177,0,0,0,1.8665,1.2832c-.9917.5723.7145,1.9584,1.3459,2.1364.2695.1125.5386.2076.6548.4986a.8163.8163,0,0,1-.0826.761c-.1915.2537-.5229.3652-.7216.6246a2.0305,2.0305,0,0,0-.3595,1.0882,14.0464,14.0464,0,0,0,.4856,5.196,15.61,15.61,0,0,1,.5743,2.342,1.6121,1.6121,0,0,0,.093.9153c.0793.6093-.0913,1.2654.04,1.8649.6367,1.6058,2.6913.1554,3.6682-.3543a24.8694,24.8694,0,0,0,7.2133-6.1822c1.13-1.2361,2.72-1.8689,3.9443-2.9963.637-.5632,1.225-1.1783,1.8461-1.7583a19.8768,19.8768,0,0,1,8.8971-4.7648.6474.6474,0,0,0,.3735.1678,4.079,4.079,0,0,0,.7467,2.1292c.0455.3021.1043.6031.1714.9024-.0632.7165-.2522,1.3859-.3491,2.0931a20.4615,20.4615,0,0,0-.0428,3.2263,10.4081,10.4081,0,0,0,.1916,2.2907c.0166.0654.1875.4887.15.5291a.4934.4934,0,0,0,.2157.8169,4.7838,4.7838,0,0,0,3.7316-1.1754,35.6087,35.6087,0,0,0,3.4935-2.69c1.1981-1.0889,2.23-2.357,3.3478-3.5307a1.3235,1.3235,0,0,0,.5661-.5712,13.896,13.896,0,0,1,1.7989-1.5249.4888.4888,0,0,0,.195-.2638c.2063-.0876.5314-.19.5372-.4364a8.5611,8.5611,0,0,1,1.411.0949l6.0189.3827a6.4514,6.4514,0,0,0-1.8866,1.0363.4925.4925,0,0,0,.2467.9107q3.6148-.033,7.2264-.2011,1.7654-.0828,3.5289-.1988c.9162-.06,2.1136.0488,2.7068-.7937q3.8.0658,7.5935.3132a.4108.4108,0,0,0,.3763-.1615c1.5277.0848,3.0567.1794,4.5855.2123a11.8015,11.8015,0,0,0,4.9835-.7869.4313.4313,0,0,0,.1909-.1516,3.8526,3.8526,0,0,1,.5642.98c1.0808,1.7,4.0834.8964,5.807,1.0386,1.4613-.0334,2.641.8441,3.9187,1.4059a5.866,5.866,0,0,1,1.899.961c.4974.444.94.9371,1.4731,1.3413a7.46,7.46,0,0,0,2.5674,1.251c-2.2261.7141-4.4847,1.3127-6.7246,1.98a.4928.4928,0,0,0,0,.9426,20.0791,20.0791,0,0,0,4.5876.461c2.9807-.04,6.4294.1654,8.8706-1.8113a.4279.4279,0,0,0,.33.113,17.4989,17.4989,0,0,1,5.8868.8927c3.8034,1.1774,7.5474,2.5927,11.5151,3.1277a22.7952,22.7952,0,0,0,5.9375.5439c2.0847-.2206,3.9758-1.29,6.0645-1.4595.6349-.0522.6207-1.0551-.02-.9749a.3575.3575,0,0,0-.213-.118,11.3241,11.3241,0,0,1-2.8479-1.2431,6.7624,6.7624,0,0,0-1.6376-.4175,2.4567,2.4567,0,0,1-1.4716-.7244.4886.4886,0,0,0-.1675-.1181c1.6811-1.09,3.2651-2.5578,5.32-2.8557a13.642,13.642,0,0,0,1.7125-.1C140.6,142.2481,140.6469,141.1857,139.9842,140.223Z"/><path class="cls-1" d="M89.8323,115.4886c-.5382-1.52-.1983-3.3748-1.4853-4.5648a4.9968,4.9968,0,0,0-3.181-1.153,22.5513,22.5513,0,0,0-3.3924,1.5241,1.7541,1.7541,0,0,1-.228.7233.4941.4941,0,1,0-.5919.7864c.2263.132.67.3915.8919.5208a.4925.4925,0,0,0,.0153.121,1.28,1.28,0,0,0,.1458.3166,1.1271,1.1271,0,0,0,.2214.6315,8.6906,8.6906,0,0,0,1.72,3.0013C86.1434,120.2937,91.5965,120.1906,89.8323,115.4886Z"/><path class="cls-1" d="M73.6067,136.9962a3.9739,3.9739,0,0,0-.6877-2.5806c-.9143-1.3738-3.2116-.9633-3.8834.4672a4.3984,4.3984,0,0,0-.44,1.8174.4376.4376,0,0,0-.1971.2707,7.5916,7.5916,0,0,0,.1439,3.9666c.1154.7425.9646,1.0124,1.5735,1.256a3.5549,3.5549,0,0,0,1.7317.3675C73.71,142.1325,73.6236,138.5128,73.6067,136.9962Z"/><path class="cls-1" d="M87.4013,141.0335a4.9067,4.9067,0,0,0-.93-3.0743,3.2665,3.2665,0,0,1-.7592-1.4712,30.56,30.56,0,0,0-1.0247-4.0071,4.769,4.769,0,0,0-.78-1.57,3.6519,3.6519,0,0,0-3.2984-.9679.4973.4973,0,0,0-.3106.1492,2.2845,2.2845,0,0,0-1.3977,1.1233,2.0239,2.0239,0,0,0-.8729-1.2734.5036.5036,0,0,0-.2508-.2148c-2.5923-1.0887-4.3922.6674-3.9681,3.3217.2409,1.35.8472,2.6361.679,4.0379-.2088,2.4221-.032,5.3222,2.0161,6.958a2.8785,2.8785,0,0,0,2.9165.3247c1.276-.61,1.3938-2.117,1.1685-3.3543a11.0024,11.0024,0,0,1,1.0224,2.4277,3.0331,3.0331,0,0,0,2.3526,1.884,2.9563,2.9563,0,0,0,2.7121-1.084A4.8009,4.8009,0,0,0,87.4013,141.0335Z"/><path class="cls-1" d="M96.3381,140.496a.6009.6009,0,0,0-.3442-.0984c-.1067.0017-.126.0274-.2253-.0119-.403-.1949-.7964-.42-1.2193-.5768a6.0777,6.0777,0,0,0-3.0655-.5718.4791.4791,0,0,0-.2963.69,2.0423,2.0423,0,0,0,.9205,2.283,2.4082,2.4082,0,0,0,2.5719.5584c.8324-.1959,1.79-.5988,1.882-1.57A.6292.6292,0,0,0,96.3381,140.496Z"/></svg>