<svg id="Group_14" data-name="Group 14" xmlns="http://www.w3.org/2000/svg" width="600" height="600" viewBox="0 0 1134 1134">
  <path id="Path_2" data-name="Path 2" d="M984.668,165.512c-41.3-81.828-127.3-143.566-222-150.765-49.774-3.767-99.717,6.823-149.576,4.6C564.033,17.175,516.157,2.693,467.1,1.9c-55-.963-109.588,15.654-156.241,43.488A262.891,262.891,0,0,0,260.874,83.81C246.152,89.586,232.317,97.2,221.9,108.546c-44.881,48.929-5.188,135.111-48.045,185.714-19.446,22.9-50.955,32.1-77.656,46.837C41.445,371.276,4.7,429.33,2.131,489.728S31.237,610.858,83.2,645.222c30.455,20.091,66.52,31.266,97.187,51.022,74.2,47.716,106.34,137.245,172.439,194.8,63.4,55.25,150.968,75.466,234.53,93.757,65.3,14.315,130.932,28.629,197.79,32.648,36.276,2.176,74.071,1,106.888-13.9,49.268-22.393,79.555-73.415,86.472-125.191,6.875-51.734-6.623-104.137-26.153-152.858-13.54-33.9-30.286-67.6-32.648-103.8-4.429-68.141,41.76-128.288,68.756-191.449C1024.4,346.12,1026.006,247.382,984.668,165.512ZM724.619,432.845c-4.724,34.908-1.772,24.025-15.354,56-6.327,14.817-10.841,27.416-19.319,40.349-2.995,4.6-5.905,9.166-8.436,14.022,5.4,29.09,5.695,58.64-1.561,90.283-12.275,53.366-51.883,96.268-96.933,125.065-44.8,28.671-112.034,34.908-162.526,21.1-41.8-11.427-91.787-43.112-117.56-81.786-17-10.757-33.661-22.1-48.34-36.875C206.67,612.826,180.517,547.907,178.2,480.854c-2.7-79.024,47.834-158.592,115.578-197.727,12.7-7.367,26.237-13.268,39.946-18.835,8.732-15.152,18.686-29.76,31.13-43.2,38.006-41.1,94.571-58.891,149.112-61.319a159.772,159.772,0,0,1,81.242,18.04A158.333,158.333,0,0,1,663.118,221.1c34.969,34.7,59.1,87.311,61.332,137.245,2.236,13.017,4.218,26.327,4.218,37.8C728.668,408.778,726.432,419.452,724.619,432.845Z" transform="translate(58.645 57.269)" fill="#606c38"/>
  <g id="Group_13" data-name="Group 13">
    <path id="Path_3" data-name="Path 3" d="M1096.161,192.794C1041.1,90.85,937.705,19.94,820.7,11.556c-69.254-4.922-135.483,8.05-204.863-2.378C546.248-1.292,481.069-6.255,413.159,16.811c-56.4,19.187-103.1,53.016-151.232,86.636-51.363,35.831-64.34,89.973-67.07,149.287-.8,16.893,3.024,43.3-7.308,57.813-14.951,20.981-54.134,28.99-75.427,42.88C62.272,385.837,24.516,436.642,8.809,493.787-24.536,614.96,46.1,725.914,153.616,778.679c52.5,25.736,87.564,52.474,121.834,99.566,35.32,48.553,68.456,97.022,117.508,133.1,99.953,73.538,241.064,95.854,361.219,114.416,123.934,19.146,261.391,17.894,322.161-111.371,29.566-62.86,28.684-132.894,10.877-198.966-20.747-77-65.222-129.766-29.9-209.352,29.9-67.323,64.928-125.052,74.461-199.8,9.533-74.664-3.906-145.408-35.614-213.482-34.018-73-142.665-9.51-108.815,63.152,48.213,103.446,5.544,192.584-38.806,286.978-20.117,42.8-36.79,88.054-34.48,136.064C916.832,736.634,947.2,786.1,963.239,840.33c12.515,42.3,19.067,90.64-5.46,130.141-30.448,49.1-91.3,43.255-141.867,38.083-96.972-9.886-209.692-29.949-299.147-69.659-89.538-39.71-123.346-125.72-187.35-192.792-30.238-31.659-65.852-53.391-105.119-72.162-44.517-21.273-85.38-46.425-95.8-98.315C105.487,461.21,238.157,454.369,288.847,384.252c23.812-32.952,29.188-71.661,31.288-111.2.84-15.892-2.9-40.627,4.872-55.685,8.315-16.1,36.832-28.7,52.118-40.836,42.165-33.37,95.082-53.558,149.3-52.64,61.568.959,120.448,19.479,182.6,17.1,59.3-2.294,116.752-12.931,172.819,12.639,46.995,21.44,81.349,57.6,105.5,102.319C1025.689,326.94,1134.5,263.829,1096.161,192.794Z" transform="translate(-0.489 -0.399)" fill="#606c38"/>
    <path id="Path_4" data-name="Path 4" d="M529.695,328.115a79.353,79.353,0,0,1-6.482,23.537c-10.047,23.537-30.464,50.274-33.826,75.228-3.808,28.114,6,55.013-1.62,83.776-5.672,21.552-17.7,39.619-33.34,55.256C391.878,628.582,294,621.736,237.938,553.962c-18.068-21.795-43.508-34.069-62.67-55.135-15.637-17.136-27.871-38.161-35.852-59.875-15.394-41.807-18.716-86.976.284-128.054,18.756-40.551,51.286-69.192,91.513-87.3,20.134-9.074,29.451-18.068,41.483-36.662,6.522-10.087,13-19.283,21.835-27.588,17.7-16.65,40.105-25.522,63.561-30.788C468.2,103.808,546.669,209.3,531.882,311.952c-4.7,32.449,7.981,65.3,42.415,74.742,28.56,7.859,70.043-9.723,74.742-42.415C666.945,220.074,622.18,81.447,498.866,29.107,437.29,2.937,377.334-4.071,312.193,14.928,246.445,34.09,197.224,75.937,162.588,134.313l36.3-27.912C94.328,150.153,15.373,235.63,5.609,352.543-4.032,467.917,60.461,575.838,154.81,637.13l-21.835-21.795C200.83,711.1,326.372,757.163,439.154,717.26c54.689-19.364,101.6-58.335,134.414-105.895,39.417-57.039,44.8-125.947,34.11-192.547l-6.117,46.79C627,420.52,644.542,379.28,651.227,328.115c4.254-32.611-30.991-60.766-60.766-60.766C554.082,267.35,533.989,295.423,529.695,328.115Z" transform="translate(179.376 148.146)" fill="#606c38"/>
  </g>
</svg>
